<?xml version="1.0" standalone="no"?>
<!DOCTYPE svg PUBLIC "-//W3C//DTD SVG 20010904//EN"
 "http://www.w3.org/TR/2001/REC-SVG-20010904/DTD/svg10.dtd">
<svg version="1.0" xmlns="http://www.w3.org/2000/svg"
 width="124.000000pt" height="57.000000pt" viewBox="0 0 124.000000 57.000000"
 preserveAspectRatio="xMidYMid meet">

<g transform="translate(0.000000,57.000000) scale(0.100000,-0.100000)"
fill="#000000" stroke="none">
<path d="M0 285 l0 -285 620 0 620 0 0 285 0 285 -620 0 -620 0 0 -285z m839
248 c39 -23 44 -47 40 -212 -4 -122 -5 -131 -29 -156 -31 -34 -97 -68 -116
-61 -8 3 -14 -1 -14 -9 0 -13 -28 -35 -44 -35 -3 0 -6 17 -6 39 0 46 -26 76
-33 39 -2 -13 -4 53 -3 147 l1 169 80 47 c44 26 83 48 87 48 3 1 20 -7 37 -16z
m-558 -3 c18 -10 19 -23 19 -184 0 -203 0 -202 -106 -261 -70 -39 -94 -37 -94
10 0 25 -26 41 -34 22 -2 -7 -5 16 -5 50 -1 53 2 64 21 77 32 22 62 1 66 -47
l3 -35 29 16 30 17 0 108 c0 59 -2 107 -5 107 -3 0 -17 -7 -30 -16 -23 -15
-27 -15 -51 0 -42 28 -28 55 51 103 78 47 78 47 106 33z m290 0 c34 -18 24
-56 -21 -81 l-40 -23 0 -97 c0 -90 1 -97 19 -92 29 7 61 -14 61 -42 0 -20 -17
-33 -98 -79 -98 -56 -122 -65 -122 -46 0 6 -6 9 -12 8 -8 -2 -13 8 -13 27 0
24 7 34 37 50 l38 20 0 98 c0 93 -1 98 -20 92 -31 -10 -62 12 -58 43 2 21 20
36 93 79 96 56 106 59 136 43z m570 0 c12 -7 19 -21 19 -38 0 -23 -11 -33 -75
-70 -67 -38 -75 -46 -75 -72 l0 -30 51 31 c43 27 54 30 75 21 17 -8 24 -20 24
-39 0 -24 -10 -34 -75 -71 -67 -38 -75 -46 -75 -72 l0 -30 51 31 c43 27 54 30
75 21 17 -8 24 -20 24 -39 0 -25 -11 -34 -85 -76 -97 -55 -112 -53 -117 16 -4
47 -25 61 -31 20 -2 -15 -5 37 -5 117 -2 175 1 182 108 245 84 49 84 49 111
35z"/>
<path d="M775 431 l-50 -28 -3 -111 -3 -112 36 21 35 21 0 100 c0 95 1 99 20
93 16 -5 20 -2 20 19 0 14 -1 26 -2 25 -2 0 -25 -13 -53 -28z"/>
<path d="M440 380 c-12 -7 -12 -12 -3 -21 15 -15 26 -7 21 15 -2 11 -7 13 -18
6z"/>
</g>
</svg>
